<svg xmlns="http://www.w3.org/2000/svg" viewBox="11 13 78 78"><defs><clipPath id="a04c03a"><circle cx="50" cy="52" r="39"/></clipPath></defs><g clip-path="url(#a04c03a)"><rect width="100" height="100" fill="#FFD9DC"/><path d="M11 100 C13 82 28 73.5 50 73.5 C72 73.5 87 82 89 100 Z" fill="#C2417B"/><path d="M42.5 60 L42.5 74.5 C46 78.5 54 78.5 57.5 74.5 L57.5 60 Z" fill="#CEA785"/><ellipse cx="33.8" cy="49" rx="3.2" ry="4.6" fill="#EBBE98"/><ellipse cx="66.2" cy="49" rx="3.2" ry="4.6" fill="#EBBE98"/><ellipse cx="50" cy="47" rx="16.6" ry="19.2" fill="#EBBE98"/><path d="M33.2 51 C31 33.5 39.6 26 50 26 C60.4 26 69 33.5 66.8 51 C65.6 42.5 61.6 35.6 51.2 33.6 L50 33.4 L48.8 33.6 C38.4 35.6 34.4 42.5 33.2 51 Z" fill="#271C18"/><path d="M31.6 46 C30 56 30.6 61.5 34.6 63 L36.4 50 Z M68.4 46 C70 56 69.4 61.5 65.4 63 L63.6 50 Z" fill="#271C18"/><path d="M39.6 43.6 Q43.4 41.8 46.8 43.4" stroke="#271C18" stroke-width="1.5" fill="none" stroke-linecap="round"/><path d="M53.2 43.4 Q56.6 41.8 60.4 43.6" stroke="#271C18" stroke-width="1.5" fill="none" stroke-linecap="round"/><ellipse cx="43.4" cy="48.4" rx="1.8" ry="2.2" fill="#2A1A16"/><ellipse cx="56.6" cy="48.4" rx="1.8" ry="2.2" fill="#2A1A16"/><circle cx="44" cy="47.6" r=".6" fill="#fff"/><circle cx="57.2" cy="47.6" r=".6" fill="#fff"/><path d="M50 50.5 Q51.8 53.6 50 54.4" stroke="#B79476" stroke-width="1.1" fill="none" stroke-linecap="round"/><ellipse cx="39.4" cy="55" rx="3" ry="1.8" fill="#F07A72" opacity=".28"/><ellipse cx="60.6" cy="55" rx="3" ry="1.8" fill="#F07A72" opacity=".28"/><path d="M46.4 57.4 Q50 60 53.6 57.4" stroke="#7A3A2C" stroke-width="1.6" fill="none" stroke-linecap="round"/><circle cx="33.8" cy="55" r="1.6" fill="#F5B400"/><circle cx="66.2" cy="55" r="1.6" fill="#F5B400"/></g></svg>