<svg xmlns="http://www.w3.org/2000/svg" viewBox="11 13 78 78"><defs><clipPath id="a5ecc86"><circle cx="50" cy="52" r="39"/></clipPath></defs><g clip-path="url(#a5ecc86)"><rect width="100" height="100" fill="#FFD9DC"/><path d="M11 100 C13 82 28 73.5 50 73.5 C72 73.5 87 82 89 100 Z" fill="#E9F1FF" stroke="#C9D7F2" stroke-width=".8"/><path d="M42.5 60 L42.5 74.5 C46 78.5 54 78.5 57.5 74.5 L57.5 60 Z" fill="#B7825B"/><path d="M40.5 73 L50 78.5 L45.6 84 Z" fill="#fff" stroke="#C9D7F2" stroke-width=".7"/><path d="M59.5 73 L50 78.5 L54.4 84 Z" fill="#fff" stroke="#C9D7F2" stroke-width=".7"/><path d="M47.6 76.6 L52.4 76.6 L51.6 80.6 L48.4 80.6 Z" fill="#26205E"/><path d="M48.4 80.6 L51.6 80.6 L54 95 L50 99.5 L46 95 Z" fill="#26205E"/><path d="M47.4 86 L52.8 83.6 M46.6 91 L53.6 87.8 M46.8 96 L54 92.6" stroke="#FFB020" stroke-width="1.3"/><ellipse cx="33.8" cy="49" rx="3.2" ry="4.6" fill="#D19468"/><ellipse cx="66.2" cy="49" rx="3.2" ry="4.6" fill="#D19468"/><ellipse cx="50" cy="47" rx="16.6" ry="19.2" fill="#D19468"/><path d="M33.4 48 C31.6 32.5 40.5 26 50.6 26 C61 26 68.6 32.5 66.6 48 C65.6 40.5 62.2 36.4 57 35.4 C51.5 38.8 43 40.8 36.4 40.4 C35 42.6 34 45 33.4 48 Z" fill="#33231C"/><path d="M39.6 43.6 Q43.4 41.8 46.8 43.4" stroke="#33231C" stroke-width="1.5" fill="none" stroke-linecap="round"/><path d="M53.2 43.4 Q56.6 41.8 60.4 43.6" stroke="#33231C" stroke-width="1.5" fill="none" stroke-linecap="round"/><ellipse cx="43.4" cy="48.4" rx="1.8" ry="2.2" fill="#2A1A16"/><ellipse cx="56.6" cy="48.4" rx="1.8" ry="2.2" fill="#2A1A16"/><circle cx="44" cy="47.6" r=".6" fill="#fff"/><circle cx="57.2" cy="47.6" r=".6" fill="#fff"/><path d="M50 50.5 Q51.8 53.6 50 54.4" stroke="#A37351" stroke-width="1.1" fill="none" stroke-linecap="round"/><ellipse cx="39.4" cy="55" rx="3" ry="1.8" fill="#F07A72" opacity=".28"/><ellipse cx="60.6" cy="55" rx="3" ry="1.8" fill="#F07A72" opacity=".28"/><path d="M45 56.6 Q50 62.4 55 56.6 Z" fill="#8A3B2E"/><path d="M46.6 57.4 Q50 58.4 53.4 57.4 L53 58.6 Q50 59.4 47 58.6 Z" fill="#fff"/></g></svg>