<svg xmlns="http://www.w3.org/2000/svg" viewBox="11 13 78 78"><defs><clipPath id="a4f03a3"><circle cx="50" cy="52" r="39"/></clipPath></defs><g clip-path="url(#a4f03a3)"><rect width="100" height="100" fill="#FFE7BF"/><path d="M11 100 C13 82 28 73.5 50 73.5 C72 73.5 87 82 89 100 Z" fill="#2F3A8F"/><path d="M42.5 60 L42.5 74.5 C46 78.5 54 78.5 57.5 74.5 L57.5 60 Z" fill="#B7825B"/><ellipse cx="33.8" cy="49" rx="3.2" ry="4.6" fill="#D19468"/><ellipse cx="66.2" cy="49" rx="3.2" ry="4.6" fill="#D19468"/><ellipse cx="50" cy="47" rx="16.6" ry="19.2" fill="#D19468"/><path d="M32.6 47 C30.6 30.5 40 24 50 24 C60 24 69.4 30.5 67.4 47 C61 41.5 39 41.5 32.6 47 Z" fill="#F08A24"/><circle cx="50" cy="27" r="5.4" fill="#C4711D"/><path d="M37 38.5 C44 35.8 56 35.8 63 38.5" stroke="#C06E1C" stroke-width="1" fill="none"/><path d="M39.6 43.6 Q43.4 41.8 46.8 43.4" stroke="#1E1715" stroke-width="1.5" fill="none" stroke-linecap="round"/><path d="M53.2 43.4 Q56.6 41.8 60.4 43.6" stroke="#1E1715" stroke-width="1.5" fill="none" stroke-linecap="round"/><ellipse cx="43.4" cy="48.4" rx="1.8" ry="2.2" fill="#2A1A16"/><ellipse cx="56.6" cy="48.4" rx="1.8" ry="2.2" fill="#2A1A16"/><circle cx="44" cy="47.6" r=".6" fill="#fff"/><circle cx="57.2" cy="47.6" r=".6" fill="#fff"/><path d="M50 50.5 Q51.8 53.6 50 54.4" stroke="#A37351" stroke-width="1.1" fill="none" stroke-linecap="round"/><ellipse cx="39.4" cy="55" rx="3" ry="1.8" fill="#F07A72" opacity=".28"/><ellipse cx="60.6" cy="55" rx="3" ry="1.8" fill="#F07A72" opacity=".28"/><path d="M46.4 57.4 Q50 60 53.6 57.4" stroke="#7A3A2C" stroke-width="1.6" fill="none" stroke-linecap="round"/></g></svg>